<svg xmlns="http://www.w3.org/2000/svg" viewBox="0 0 920 406" role="img"><title>GWP World-Value：训练与验证</title><g font-family="Arial, PingFang SC, sans-serif"><rect x="0" y="0" width="920" height="406" fill="#ffffff"/><text x="24" y="34" font-size="21" fill="#24292f" text-anchor="start">GWP World-Value：训练与验证</text><text x="24" y="61" font-size="14" fill="#57606a" text-anchor="start">1500 步训练；31 次验证。选择 step 500，折线不平滑。</text><text x="78" y="98" font-size="15" fill="#24292f" text-anchor="start">World-Value training loss</text><path d="M78,288.0 H428" stroke="#e5e7eb" fill="none"/><text x="69" y="292.0" font-size="11" fill="#57606a" text-anchor="end">0</text><path d="M78,244.0 H428" stroke="#e5e7eb" fill="none"/><text x="69" y="248.0" font-size="11" fill="#57606a" text-anchor="end">2.93</text><path d="M78,200.0 H428" stroke="#e5e7eb" fill="none"/><text x="69" y="204.0" font-size="11" fill="#57606a" text-anchor="end">5.86</text><path d="M78,156.0 H428" stroke="#e5e7eb" fill="none"/><text x="69" y="160.0" font-size="11" fill="#57606a" text-anchor="end">8.79</text><path d="M78,112.0 H428" stroke="#e5e7eb" fill="none"/><text x="69" y="116.0" font-size="11" fill="#57606a" text-anchor="end">11.7</text><text x="78.0" y="311" font-size="12" fill="#24292f" text-anchor="middle">0</text><text x="165.5" y="311" font-size="12" fill="#24292f" text-anchor="middle">375</text><text x="253.0" y="311" font-size="12" fill="#24292f" text-anchor="middle">750</text><text x="340.5" y="311" font-size="12" fill="#24292f" text-anchor="middle">1125</text><text x="428.0" y="311" font-size="12" fill="#24292f" text-anchor="middle">1500</text><path d="M78.23,120.38 L78.47,124.22 L78.70,127.60 L78.93,129.08 L79.17,130.79 L79.40,132.15 L79.63,132.77 L79.87,132.30 L80.10,133.95 L80.33,134.95 L80.57,133.91 L80.80,135.10 L81.03,135.86 L81.27,135.31 L81.50,136.69 L81.73,136.04 L81.97,136.83 L82.20,137.40 L82.43,139.09 L82.67,139.16 L82.90,139.49 L83.13,139.55 L83.37,139.63 L83.60,139.74 L83.83,140.70 L84.07,139.81 L84.30,141.51 L84.53,141.76 L84.77,142.21 L85.00,142.22 L85.23,142.79 L85.47,143.28 L85.70,144.09 L85.93,141.84 L86.17,143.80 L86.40,143.48 L86.63,146.47 L86.87,145.70 L87.10,148.26 L87.33,147.55 L87.57,149.08 L87.80,149.34 L88.03,148.78 L88.27,149.06 L88.50,149.02 L88.73,149.45 L88.97,149.14 L89.20,149.42 L89.43,150.37 L89.67,149.36 L89.90,151.81 L90.13,151.10 L90.37,152.15 L90.60,153.59 L90.83,152.73 L91.07,151.49 L91.30,154.82 L91.53,151.51 L91.77,154.47 L92.00,152.97 L92.23,154.07 L92.47,154.30 L92.70,155.07 L92.93,154.29 L93.17,152.62 L93.40,156.60 L93.63,159.99 L93.87,155.89 L94.10,159.98 L94.33,157.35 L94.57,158.25 L94.80,159.61 L95.03,159.09 L95.27,156.43 L95.50,159.02 L95.73,159.66 L95.97,159.86 L96.20,160.67 L96.43,159.70 L96.67,159.02 L96.90,161.78 L97.13,160.07 L97.37,159.61 L97.60,161.03 L97.83,156.48 L98.07,161.42 L98.30,161.96 L98.53,163.58 L98.77,161.88 L99.00,161.88 L99.23,161.25 L99.47,162.14 L99.70,161.51 L99.93,161.05 L100.17,160.64 L100.40,160.35 L100.63,163.86 L100.87,165.01 L101.10,160.91 L101.33,162.10 L101.57,161.71 L101.80,160.33 L102.03,165.40 L102.27,165.03 L102.50,164.75 L102.73,164.95 L102.97,161.58 L103.20,161.15 L103.43,165.94 L103.67,166.48 L103.90,162.83 L104.13,162.34 L104.37,164.42 L104.60,164.81 L104.83,167.03 L105.07,164.44 L105.30,165.04 L105.53,161.71 L105.77,166.98 L106.00,163.84 L106.23,162.72 L106.47,162.26 L106.70,164.29 L106.93,165.68 L107.17,163.09 L107.40,164.68 L107.63,163.66 L107.87,169.03 L108.10,166.11 L108.33,166.09 L108.57,164.61 L108.80,166.72 L109.03,166.24 L109.27,165.51 L109.50,168.15 L109.73,165.04 L109.97,165.31 L110.20,167.59 L110.43,162.27 L110.67,166.53 L110.90,162.35 L111.13,168.61 L111.37,167.63 L111.60,165.50 L111.83,163.46 L112.07,164.71 L112.30,163.77 L112.53,166.30 L112.77,167.31 L113.00,169.29 L113.23,166.51 L113.47,165.43 L113.70,166.60 L113.93,165.78 L114.17,167.59 L114.40,169.22 L114.63,164.63 L114.87,163.25 L115.10,168.25 L115.33,169.99 L115.57,168.91 L115.80,169.14 L116.03,168.57 L116.27,166.80 L116.50,165.82 L116.73,170.01 L116.97,165.44 L117.20,169.71 L117.43,165.45 L117.67,168.17 L117.90,171.20 L118.13,169.61 L118.37,170.84 L118.60,170.03 L118.83,169.67 L119.07,170.89 L119.30,165.98 L119.53,171.45 L119.77,168.42 L120.00,168.47 L120.23,168.53 L120.47,169.29 L120.70,167.70 L120.93,170.04 L121.17,169.97 L121.40,167.83 L121.63,167.78 L121.87,167.38 L122.10,171.13 L122.33,167.99 L122.57,168.93 L122.80,171.12 L123.03,169.33 L123.27,166.44 L123.50,164.33 L123.73,169.64 L123.97,168.93 L124.20,169.97 L124.43,166.99 L124.67,172.53 L124.90,170.79 L125.13,169.60 L125.37,172.05 L125.60,172.08 L125.83,172.73 L126.07,171.11 L126.30,169.62 L126.53,168.08 L126.77,170.21 L127.00,169.53 L127.23,173.70 L127.47,166.67 L127.70,168.78 L127.93,173.23 L128.17,170.06 L128.40,169.77 L128.63,167.66 L128.87,173.34 L129.10,170.15 L129.33,170.25 L129.57,172.02 L129.80,168.87 L130.03,166.58 L130.27,170.04 L130.50,172.40 L130.73,172.84 L130.97,166.75 L131.20,174.88 L131.43,171.64 L131.67,169.42 L131.90,170.88 L132.13,168.93 L132.37,171.86 L132.60,172.54 L132.83,174.60 L133.07,172.76 L133.30,173.24 L133.53,170.72 L133.77,172.00 L134.00,167.35 L134.23,173.34 L134.47,171.31 L134.70,175.25 L134.93,169.58 L135.17,172.01 L135.40,173.14 L135.63,172.05 L135.87,172.32 L136.10,172.19 L136.33,168.18 L136.57,171.20 L136.80,168.71 L137.03,170.32 L137.27,170.00 L137.50,171.97 L137.73,170.52 L137.97,171.22 L138.20,171.80 L138.43,173.50 L138.67,166.59 L138.90,173.85 L139.13,174.35 L139.37,168.96 L139.60,171.83 L139.83,171.26 L140.07,175.22 L140.30,172.92 L140.53,170.34 L140.77,174.40 L141.00,174.37 L141.23,172.49 L141.47,171.02 L141.70,174.72 L141.93,172.06 L142.17,175.75 L142.40,171.86 L142.63,174.04 L142.87,170.78 L143.10,171.81 L143.33,172.08 L143.57,175.55 L143.80,174.98 L144.03,173.87 L144.27,174.12 L144.50,174.15 L144.73,173.79 L144.97,175.45 L145.20,170.37 L145.43,170.42 L145.67,171.55 L145.90,172.98 L146.13,167.85 L146.37,173.23 L146.60,175.05 L146.83,174.93 L147.07,176.37 L147.30,173.96 L147.53,171.71 L147.77,175.34 L148.00,174.38 L148.23,175.07 L148.47,175.51 L148.70,170.30 L148.93,170.77 L149.17,173.82 L149.40,174.72 L149.63,173.13 L149.87,173.21 L150.10,175.09 L150.33,174.78 L150.57,172.18 L150.80,175.75 L151.03,177.47 L151.27,172.57 L151.50,171.71 L151.73,176.46 L151.97,174.80 L152.20,176.01 L152.43,173.65 L152.67,173.92 L152.90,171.46 L153.13,173.85 L153.37,174.92 L153.60,175.36 L153.83,173.70 L154.07,174.98 L154.30,176.98 L154.53,179.78 L154.77,175.58 L155.00,175.23 L155.23,177.33 L155.47,175.04 L155.70,176.32 L155.93,177.32 L156.17,177.40 L156.40,175.27 L156.63,176.10 L156.87,175.78 L157.10,173.05 L157.33,174.87 L157.57,179.97 L157.80,175.03 L158.03,173.45 L158.27,173.47 L158.50,174.39 L158.73,178.28 L158.97,175.24 L159.20,176.11 L159.43,176.93 L159.67,172.46 L159.90,176.95 L160.13,172.69 L160.37,178.17 L160.60,174.40 L160.83,177.01 L161.07,176.34 L161.30,175.07 L161.53,175.35 L161.77,176.97 L162.00,179.71 L162.23,178.40 L162.47,175.87 L162.70,178.60 L162.93,176.27 L163.17,176.15 L163.40,175.11 L163.63,175.84 L163.87,177.74 L164.10,177.24 L164.33,176.56 L164.57,175.88 L164.80,178.67 L165.03,176.10 L165.27,175.10 L165.50,170.93 L165.73,175.28 L165.97,177.14 L166.20,179.32 L166.43,174.75 L166.67,176.60 L166.90,175.64 L167.13,176.66 L167.37,176.63 L167.60,179.14 L167.83,176.45 L168.07,177.40 L168.30,174.94 L168.53,178.75 L168.77,178.92 L169.00,177.45 L169.23,176.58 L169.47,177.66 L169.70,178.32 L169.93,177.40 L170.17,176.55 L170.40,178.37 L170.63,178.12 L170.87,175.58 L171.10,178.04 L171.33,178.23 L171.57,178.66 L171.80,180.29 L172.03,178.11 L172.27,176.81 L172.50,180.63 L172.73,175.40 L172.97,178.16 L173.20,178.46 L173.43,180.49 L173.67,182.28 L173.90,176.34 L174.13,177.81 L174.37,178.97 L174.60,175.37 L174.83,184.73 L175.07,177.38 L175.30,179.31 L175.53,178.72 L175.77,178.00 L176.00,176.52 L176.23,176.49 L176.47,182.13 L176.70,180.22 L176.93,181.41 L177.17,179.67 L177.40,177.30 L177.63,177.39 L177.87,176.97 L178.10,172.92 L178.33,181.18 L178.57,180.54 L178.80,176.42 L179.03,177.76 L179.27,178.70 L179.50,181.90 L179.73,178.18 L179.97,179.82 L180.20,179.77 L180.43,178.15 L180.67,178.83 L180.90,180.11 L181.13,179.46 L181.37,175.28 L181.60,177.29 L181.83,181.90 L182.07,182.20 L182.30,181.43 L182.53,178.22 L182.77,181.66 L183.00,173.00 L183.23,178.89 L183.47,178.81 L183.70,178.71 L183.93,181.03 L184.17,180.90 L184.40,179.35 L184.63,180.33 L184.87,179.42 L185.10,179.14 L185.33,181.85 L185.57,179.10 L185.80,180.56 L186.03,183.42 L186.27,180.15 L186.50,177.72 L186.73,178.45 L186.97,176.89 L187.20,179.62 L187.43,178.74 L187.67,177.47 L187.90,180.67 L188.13,178.79 L188.37,182.92 L188.60,180.90 L188.83,177.83 L189.07,176.58 L189.30,177.54 L189.53,180.76 L189.77,180.20 L190.00,181.01 L190.23,177.44 L190.47,181.06 L190.70,178.90 L190.93,179.99 L191.17,181.40 L191.40,177.77 L191.63,177.74 L191.87,178.87 L192.10,178.49 L192.33,180.25 L192.57,181.96 L192.80,176.71 L193.03,179.02 L193.27,181.99 L193.50,184.35 L193.73,183.46 L193.97,181.16 L194.20,183.23 L194.43,182.79 L194.67,180.75 L194.90,179.85 L195.13,179.61 L195.37,181.09 L195.60,183.13 L195.83,180.35 L196.07,180.47 L196.30,181.33 L196.53,180.51 L196.77,181.42 L197.00,180.81 L197.23,179.67 L197.47,184.29 L197.70,180.66 L197.93,180.88 L198.17,182.63 L198.40,180.09 L198.63,180.21 L198.87,177.01 L199.10,180.16 L199.33,184.94 L199.57,180.31 L199.80,177.83 L200.03,179.78 L200.27,183.18 L200.50,183.28 L200.73,180.72 L200.97,177.72 L201.20,180.62 L201.43,182.96 L201.67,179.55 L201.90,177.57 L202.13,178.90 L202.37,184.22 L202.60,180.77 L202.83,184.44 L203.07,182.21 L203.30,181.73 L203.53,180.31 L203.77,180.45 L204.00,181.58 L204.23,180.73 L204.47,185.37 L204.70,181.63 L204.93,184.40 L205.17,182.84 L205.40,183.34 L205.63,182.50 L205.87,185.00 L206.10,180.56 L206.33,186.18 L206.57,178.38 L206.80,182.59 L207.03,181.31 L207.27,182.83 L207.50,182.35 L207.73,183.62 L207.97,185.46 L208.20,181.95 L208.43,182.95 L208.67,185.37 L208.90,184.31 L209.13,181.98 L209.37,184.49 L209.60,182.34 L209.83,182.12 L210.07,181.10 L210.30,185.35 L210.53,183.32 L210.77,182.42 L211.00,179.60 L211.23,180.93 L211.47,183.05 L211.70,182.15 L211.93,178.43 L212.17,181.90 L212.40,181.67 L212.63,185.72 L212.87,180.12 L213.10,182.44 L213.33,182.59 L213.57,185.38 L213.80,182.91 L214.03,185.18 L214.27,182.12 L214.50,181.48 L214.73,181.91 L214.97,182.39 L215.20,182.08 L215.43,180.85 L215.67,182.11 L215.90,179.58 L216.13,183.37 L216.37,180.31 L216.60,183.02 L216.83,183.92 L217.07,184.39 L217.30,187.36 L217.53,184.99 L217.77,185.94 L218.00,181.55 L218.23,182.55 L218.47,183.28 L218.70,182.33 L218.93,181.72 L219.17,184.23 L219.40,183.96 L219.63,182.61 L219.87,182.52 L220.10,183.74 L220.33,178.87 L220.57,182.05 L220.80,185.86 L221.03,183.11 L221.27,185.34 L221.50,183.07 L221.73,183.84 L221.97,185.23 L222.20,182.27 L222.43,186.04 L222.67,181.53 L222.90,182.81 L223.13,181.13 L223.37,185.17 L223.60,185.54 L223.83,180.61 L224.07,181.38 L224.30,183.81 L224.53,184.06 L224.77,185.13 L225.00,183.66 L225.23,186.41 L225.47,184.06 L225.70,184.16 L225.93,183.97 L226.17,185.46 L226.40,184.96 L226.63,183.78 L226.87,182.37 L227.10,185.46 L227.33,183.94 L227.57,183.64 L227.80,185.37 L228.03,181.70 L228.27,186.62 L228.50,184.04 L228.73,185.81 L228.97,187.33 L229.20,184.55 L229.43,185.92 L229.67,186.34 L229.90,182.63 L230.13,188.03 L230.37,182.79 L230.60,182.23 L230.83,184.58 L231.07,182.49 L231.30,185.22 L231.53,185.23 L231.77,187.44 L232.00,184.05 L232.23,185.98 L232.47,182.48 L232.70,185.01 L232.93,186.67 L233.17,186.14 L233.40,186.30 L233.63,186.00 L233.87,187.96 L234.10,186.50 L234.33,184.66 L234.57,186.17 L234.80,184.24 L235.03,184.29 L235.27,187.42 L235.50,186.03 L235.73,184.86 L235.97,185.09 L236.20,185.69 L236.43,185.08 L236.67,180.84 L236.90,187.54 L237.13,186.38 L237.37,182.78 L237.60,185.86 L237.83,185.65 L238.07,183.28 L238.30,183.78 L238.53,186.22 L238.77,187.02 L239.00,186.43 L239.23,185.26 L239.47,184.46 L239.70,181.74 L239.93,185.70 L240.17,182.75 L240.40,185.48 L240.63,189.15 L240.87,185.77 L241.10,186.97 L241.33,188.40 L241.57,186.51 L241.80,185.65 L242.03,187.36 L242.27,184.41 L242.50,183.64 L242.73,186.85 L242.97,188.67 L243.20,187.24 L243.43,185.62 L243.67,186.02 L243.90,187.69 L244.13,188.57 L244.37,185.88 L244.60,185.41 L244.83,184.48 L245.07,184.46 L245.30,188.78 L245.53,187.16 L245.77,183.37 L246.00,187.57 L246.23,184.55 L246.47,187.49 L246.70,190.38 L246.93,185.75 L247.17,187.45 L247.40,186.49 L247.63,184.94 L247.87,187.77 L248.10,182.83 L248.33,184.11 L248.57,185.86 L248.80,188.20 L249.03,183.79 L249.27,188.01 L249.50,187.96 L249.73,186.20 L249.97,187.47 L250.20,186.74 L250.43,188.54 L250.67,187.18 L250.90,184.36 L251.13,185.86 L251.37,185.85 L251.60,189.54 L251.83,186.76 L252.07,183.50 L252.30,188.42 L252.53,184.51 L252.77,184.09 L253.00,188.08 L253.23,183.88 L253.47,189.35 L253.70,188.31 L253.93,187.87 L254.17,183.09 L254.40,186.82 L254.63,187.89 L254.87,184.93 L255.10,189.59 L255.33,185.25 L255.57,188.37 L255.80,187.06 L256.03,185.01 L256.27,185.06 L256.50,188.67 L256.73,188.60 L256.97,190.06 L257.20,187.60 L257.43,191.33 L257.67,187.99 L257.90,188.25 L258.13,184.25 L258.37,188.10 L258.60,185.16 L258.83,189.38 L259.07,187.43 L259.30,185.83 L259.53,186.54 L259.77,187.20 L260.00,185.54 L260.23,190.44 L260.47,188.41 L260.70,189.09 L260.93,187.32 L261.17,190.15 L261.40,185.86 L261.63,187.77 L261.87,190.52 L262.10,185.33 L262.33,186.85 L262.57,187.96 L262.80,183.23 L263.03,186.43 L263.27,187.04 L263.50,183.50 L263.73,184.14 L263.97,186.37 L264.20,188.37 L264.43,185.96 L264.67,186.75 L264.90,190.99 L265.13,188.17 L265.37,189.01 L265.60,188.56 L265.83,189.25 L266.07,188.28 L266.30,187.94 L266.53,186.52 L266.77,189.26 L267.00,188.52 L267.23,187.24 L267.47,187.19 L267.70,184.73 L267.93,187.01 L268.17,188.34 L268.40,185.25 L268.63,188.05 L268.87,189.12 L269.10,189.63 L269.33,189.24 L269.57,187.63 L269.80,185.48 L270.03,186.54 L270.27,187.98 L270.50,189.15 L270.73,188.94 L270.97,190.65 L271.20,190.16 L271.43,190.55 L271.67,191.47 L271.90,190.14 L272.13,189.93 L272.37,186.95 L272.60,187.59 L272.83,189.55 L273.07,188.22 L273.30,188.49 L273.53,186.92 L273.77,191.13 L274.00,188.50 L274.23,186.73 L274.47,188.88 L274.70,189.88 L274.93,186.37 L275.17,185.99 L275.40,187.92 L275.63,186.67 L275.87,187.50 L276.10,191.29 L276.33,189.37 L276.57,189.29 L276.80,187.84 L277.03,191.10 L277.27,189.38 L277.50,187.82 L277.73,187.04 L277.97,188.92 L278.20,191.29 L278.43,189.88 L278.67,191.83 L278.90,191.22 L279.13,191.61 L279.37,192.46 L279.60,188.95 L279.83,188.45 L280.07,188.13 L280.30,189.38 L280.53,190.45 L280.77,191.76 L281.00,189.28 L281.23,190.09 L281.47,190.60 L281.70,188.58 L281.93,188.70 L282.17,191.32 L282.40,188.86 L282.63,192.97 L282.87,185.50 L283.10,186.18 L283.33,191.58 L283.57,187.57 L283.80,189.73 L284.03,188.38 L284.27,187.77 L284.50,189.14 L284.73,190.11 L284.97,189.98 L285.20,191.32 L285.43,188.41 L285.67,190.54 L285.90,190.06 L286.13,189.73 L286.37,187.29 L286.60,192.29 L286.83,187.07 L287.07,187.14 L287.30,190.03 L287.53,190.82 L287.77,191.80 L288.00,188.44 L288.23,192.75 L288.47,191.41 L288.70,189.97 L288.93,188.11 L289.17,188.89 L289.40,190.38 L289.63,188.10 L289.87,190.55 L290.10,188.77 L290.33,189.71 L290.57,189.52 L290.80,190.54 L291.03,189.63 L291.27,192.14 L291.50,189.54 L291.73,192.00 L291.97,189.73 L292.20,192.50 L292.43,191.46 L292.67,189.38 L292.90,191.33 L293.13,191.04 L293.37,189.36 L293.60,189.74 L293.83,190.94 L294.07,185.74 L294.30,191.31 L294.53,190.02 L294.77,190.60 L295.00,188.27 L295.23,190.10 L295.47,190.30 L295.70,189.30 L295.93,190.49 L296.17,190.78 L296.40,191.20 L296.63,191.53 L296.87,190.11 L297.10,191.45 L297.33,194.22 L297.57,189.36 L297.80,189.32 L298.03,190.59 L298.27,195.25 L298.50,191.03 L298.73,188.71 L298.97,192.57 L299.20,192.11 L299.43,189.79 L299.67,190.04 L299.90,192.13 L300.13,191.59 L300.37,190.72 L300.60,190.58 L300.83,190.76 L301.07,190.74 L301.30,193.04 L301.53,193.14 L301.77,188.75 L302.00,190.84 L302.23,193.18 L302.47,191.15 L302.70,187.98 L302.93,190.83 L303.17,191.37 L303.40,193.28 L303.63,192.61 L303.87,191.09 L304.10,189.84 L304.33,191.50 L304.57,191.19 L304.80,191.06 L305.03,193.72 L305.27,191.56 L305.50,190.42 L305.73,190.65 L305.97,192.26 L306.20,192.93 L306.43,192.56 L306.67,192.59 L306.90,191.14 L307.13,188.72 L307.37,190.65 L307.60,189.80 L307.83,191.08 L308.07,188.74 L308.30,193.45 L308.53,190.31 L308.77,192.78 L309.00,189.16 L309.23,193.30 L309.47,187.92 L309.70,189.54 L309.93,190.31 L310.17,191.16 L310.40,189.14 L310.63,192.19 L310.87,191.41 L311.10,191.11 L311.33,190.96 L311.57,190.38 L311.80,190.15 L312.03,189.04 L312.27,191.84 L312.50,190.92 L312.73,190.11 L312.97,192.75 L313.20,189.01 L313.43,190.29 L313.67,192.69 L313.90,191.54 L314.13,192.11 L314.37,189.72 L314.60,190.80 L314.83,193.31 L315.07,192.55 L315.30,192.77 L315.53,190.91 L315.77,191.26 L316.00,196.44 L316.23,193.43 L316.47,193.39 L316.70,190.72 L316.93,190.82 L317.17,193.70 L317.40,193.59 L317.63,192.65 L317.87,192.57 L318.10,190.57 L318.33,191.52 L318.57,192.82 L318.80,191.61 L319.03,189.53 L319.27,193.31 L319.50,192.99 L319.73,193.43 L319.97,191.68 L320.20,192.28 L320.43,188.06 L320.67,191.81 L320.90,192.72 L321.13,191.21 L321.37,191.57 L321.60,191.45 L321.83,194.25 L322.07,193.09 L322.30,190.88 L322.53,191.90 L322.77,191.35 L323.00,191.87 L323.23,193.19 L323.47,190.61 L323.70,190.78 L323.93,191.71 L324.17,191.68 L324.40,192.95 L324.63,192.99 L324.87,193.92 L325.10,194.26 L325.33,193.90 L325.57,192.78 L325.80,191.64 L326.03,190.84 L326.27,193.42 L326.50,191.90 L326.73,194.24 L326.97,191.38 L327.20,192.11 L327.43,194.47 L327.67,192.92 L327.90,194.80 L328.13,191.72 L328.37,191.66 L328.60,194.94 L328.83,190.42 L329.07,192.77 L329.30,194.76 L329.53,193.15 L329.77,192.60 L330.00,192.65 L330.23,191.57 L330.47,191.29 L330.70,193.92 L330.93,191.35 L331.17,191.40 L331.40,195.61 L331.63,193.47 L331.87,193.18 L332.10,192.55 L332.33,193.06 L332.57,190.28 L332.80,195.34 L333.03,193.03 L333.27,191.24 L333.50,193.83 L333.73,194.11 L333.97,194.36 L334.20,187.69 L334.43,193.88 L334.67,192.62 L334.90,195.02 L335.13,191.05 L335.37,194.83 L335.60,191.90 L335.83,192.47 L336.07,190.19 L336.30,192.40 L336.53,192.18 L336.77,191.47 L337.00,191.46 L337.23,190.91 L337.47,195.68 L337.70,192.50 L337.93,194.08 L338.17,193.52 L338.40,191.46 L338.63,192.05 L338.87,194.39 L339.10,193.69 L339.33,193.96 L339.57,193.38 L339.80,193.70 L340.03,196.00 L340.27,192.98 L340.50,195.11 L340.73,192.24 L340.97,193.42 L341.20,190.98 L341.43,192.35 L341.67,192.47 L341.90,192.23 L342.13,194.65 L342.37,194.15 L342.60,195.11 L342.83,195.12 L343.07,190.91 L343.30,195.25 L343.53,193.57 L343.77,194.30 L344.00,195.16 L344.23,191.58 L344.47,194.31 L344.70,193.33 L344.93,193.33 L345.17,190.80 L345.40,193.89 L345.63,192.15 L345.87,190.51 L346.10,194.14 L346.33,193.58 L346.57,193.01 L346.80,193.75 L347.03,195.04 L347.27,192.91 L347.50,194.17 L347.73,193.34 L347.97,194.66 L348.20,192.81 L348.43,193.99 L348.67,194.21 L348.90,191.71 L349.13,193.54 L349.37,192.99 L349.60,191.64 L349.83,192.31 L350.07,195.15 L350.30,194.87 L350.53,191.79 L350.77,192.14 L351.00,189.67 L351.23,195.78 L351.47,191.73 L351.70,196.65 L351.93,193.97 L352.17,192.69 L352.40,195.61 L352.63,193.64 L352.87,193.63 L353.10,196.24 L353.33,193.07 L353.57,193.63 L353.80,191.67 L354.03,192.86 L354.27,190.87 L354.50,195.18 L354.73,192.45 L354.97,194.16 L355.20,192.37 L355.43,192.51 L355.67,191.09 L355.90,195.08 L356.13,194.68 L356.37,194.34 L356.60,192.64 L356.83,191.90 L357.07,191.47 L357.30,192.51 L357.53,193.29 L357.77,196.84 L358.00,195.80 L358.23,194.41 L358.47,194.69 L358.70,192.80 L358.93,192.79 L359.17,194.24 L359.40,193.01 L359.63,193.97 L359.87,195.80 L360.10,191.80 L360.33,194.46 L360.57,192.91 L360.80,192.59 L361.03,193.01 L361.27,191.76 L361.50,196.85 L361.73,195.22 L361.97,196.41 L362.20,193.86 L362.43,193.73 L362.67,191.57 L362.90,190.29 L363.13,194.50 L363.37,194.23 L363.60,194.95 L363.83,193.21 L364.07,194.65 L364.30,195.47 L364.53,192.34 L364.77,194.79 L365.00,192.53 L365.23,193.98 L365.47,196.66 L365.70,192.19 L365.93,194.11 L366.17,193.08 L366.40,194.26 L366.63,192.64 L366.87,192.76 L367.10,196.94 L367.33,194.10 L367.57,191.58 L367.80,193.96 L368.03,193.15 L368.27,198.88 L368.50,194.55 L368.73,194.12 L368.97,194.59 L369.20,194.15 L369.43,192.77 L369.67,194.11 L369.90,195.32 L370.13,190.79 L370.37,194.76 L370.60,190.85 L370.83,194.63 L371.07,195.78 L371.30,194.90 L371.53,195.56 L371.77,195.67 L372.00,192.70 L372.23,191.92 L372.47,194.16 L372.70,193.62 L372.93,193.77 L373.17,192.39 L373.40,192.31 L373.63,196.26 L373.87,195.39 L374.10,191.52 L374.33,193.67 L374.57,194.73 L374.80,192.86 L375.03,199.36 L375.27,195.41 L375.50,191.52 L375.73,195.99 L375.97,194.51 L376.20,193.08 L376.43,193.04 L376.67,192.21 L376.90,192.43 L377.13,193.27 L377.37,194.79 L377.60,192.41 L377.83,194.84 L378.07,197.22 L378.30,195.13 L378.53,191.52 L378.77,196.57 L379.00,194.16 L379.23,192.91 L379.47,196.83 L379.70,193.12 L379.93,193.73 L380.17,195.85 L380.40,194.21 L380.63,193.01 L380.87,193.43 L381.10,196.00 L381.33,194.52 L381.57,193.29 L381.80,195.17 L382.03,195.42 L382.27,191.16 L382.50,192.87 L382.73,192.96 L382.97,196.25 L383.20,193.25 L383.43,191.29 L383.67,192.59 L383.90,196.08 L384.13,196.01 L384.37,196.87 L384.60,194.87 L384.83,195.52 L385.07,195.13 L385.30,193.18 L385.53,191.65 L385.77,192.31 L386.00,195.40 L386.23,194.62 L386.47,195.79 L386.70,197.50 L386.93,195.43 L387.17,192.87 L387.40,195.27 L387.63,194.93 L387.87,197.34 L388.10,198.66 L388.33,197.58 L388.57,194.28 L388.80,195.51 L389.03,196.05 L389.27,194.58 L389.50,194.35 L389.73,196.14 L389.97,192.91 L390.20,195.28 L390.43,196.28 L390.67,194.72 L390.90,192.66 L391.13,192.04 L391.37,195.70 L391.60,193.19 L391.83,196.22 L392.07,195.58 L392.30,193.61 L392.53,194.09 L392.77,195.24 L393.00,193.63 L393.23,193.24 L393.47,195.68 L393.70,192.56 L393.93,191.88 L394.17,193.14 L394.40,193.87 L394.63,195.71 L394.87,196.60 L395.10,194.69 L395.33,197.04 L395.57,195.80 L395.80,194.54 L396.03,193.97 L396.27,194.78 L396.50,193.49 L396.73,196.15 L396.97,195.96 L397.20,193.59 L397.43,195.04 L397.67,194.60 L397.90,191.43 L398.13,193.04 L398.37,193.86 L398.60,193.59 L398.83,196.61 L399.07,196.51 L399.30,193.64 L399.53,197.78 L399.77,193.35 L400.00,195.13 L400.23,194.64 L400.47,195.63 L400.70,196.06 L400.93,197.33 L401.17,193.66 L401.40,195.26 L401.63,194.49 L401.87,194.32 L402.10,194.09 L402.33,194.30 L402.57,196.15 L402.80,196.85 L403.03,194.68 L403.27,195.21 L403.50,193.67 L403.73,193.85 L403.97,197.62 L404.20,197.12 L404.43,195.22 L404.67,196.20 L404.90,194.50 L405.13,195.76 L405.37,194.13 L405.60,193.30 L405.83,193.67 L406.07,194.12 L406.30,195.39 L406.53,198.85 L406.77,192.75 L407.00,190.28 L407.23,198.00 L407.47,194.99 L407.70,196.64 L407.93,196.74 L408.17,196.03 L408.40,194.59 L408.63,193.87 L408.87,196.18 L409.10,196.37 L409.33,192.54 L409.57,195.59 L409.80,195.92 L410.03,196.88 L410.27,194.69 L410.50,197.94 L410.73,198.95 L410.97,193.20 L411.20,195.73 L411.43,192.78 L411.67,195.08 L411.90,193.17 L412.13,194.46 L412.37,192.51 L412.60,196.27 L412.83,198.42 L413.07,194.20 L413.30,195.56 L413.53,197.22 L413.77,194.22 L414.00,194.51 L414.23,197.00 L414.47,194.72 L414.70,195.77 L414.93,196.05 L415.17,195.50 L415.40,190.35 L415.63,194.50 L415.87,195.56 L416.10,195.84 L416.33,192.34 L416.57,189.23 L416.80,195.75 L417.03,195.99 L417.27,193.02 L417.50,195.63 L417.73,195.62 L417.97,194.90 L418.20,194.02 L418.43,196.82 L418.67,194.11 L418.90,193.58 L419.13,196.17 L419.37,191.65 L419.60,198.03 L419.83,196.72 L420.07,193.67 L420.30,195.30 L420.53,192.20 L420.77,195.62 L421.00,196.27 L421.23,194.40 L421.47,192.39 L421.70,193.74 L421.93,193.42 L422.17,193.10 L422.40,193.00 L422.63,194.00 L422.87,193.24 L423.10,194.28 L423.33,195.42 L423.57,196.08 L423.80,196.39 L424.03,196.41 L424.27,196.21 L424.50,194.38 L424.73,195.67 L424.97,194.60 L425.20,195.27 L425.43,196.16 L425.67,193.82 L425.90,196.26 L426.13,196.20 L426.37,195.28 L426.60,194.82 L426.83,197.77 L427.07,196.82 L427.30,195.46 L427.53,194.96 L427.77,194.25 L428.00,197.07" stroke="#0969da" stroke-width="1.7" fill="none"/><rect x="78" y="328" width="15" height="3" fill="#0969da"/><text x="100" y="334" font-size="12" fill="#24292f" text-anchor="start">train/loss</text><text x="535" y="98" font-size="15" fill="#24292f" text-anchor="start">验证集：真实 / 预测未来误差</text><path d="M535,288.0 H890" stroke="#e5e7eb" fill="none"/><text x="526" y="292.0" font-size="11" fill="#57606a" text-anchor="end">0</text><path d="M535,244.0 H890" stroke="#e5e7eb" fill="none"/><text x="526" y="248.0" font-size="11" fill="#57606a" text-anchor="end">0.1</text><path d="M535,200.0 H890" stroke="#e5e7eb" fill="none"/><text x="526" y="204.0" font-size="11" fill="#57606a" text-anchor="end">0.2</text><path d="M535,156.0 H890" stroke="#e5e7eb" fill="none"/><text x="526" y="160.0" font-size="11" fill="#57606a" text-anchor="end">0.3</text><path d="M535,112.0 H890" stroke="#e5e7eb" fill="none"/><text x="526" y="116.0" font-size="11" fill="#57606a" text-anchor="end">0.4</text><text x="535.0" y="311" font-size="12" fill="#24292f" text-anchor="middle">0</text><text x="623.75" y="311" font-size="12" fill="#24292f" text-anchor="middle">375</text><text x="712.5" y="311" font-size="12" fill="#24292f" text-anchor="middle">750</text><text x="801.25" y="311" font-size="12" fill="#24292f" text-anchor="middle">1125</text><text x="890.0" y="311" font-size="12" fill="#24292f" text-anchor="middle">1500</text><path d="M535.24,153.07 L546.83,164.77 L558.67,178.06 L570.50,183.05 L582.33,187.78 L594.17,190.94 L606.00,185.73 L617.83,189.31 L629.67,190.51 L641.50,190.89 L653.33,195.02 L665.17,193.06 L677.00,191.44 L688.83,195.16 L700.67,195.63 L712.50,194.11 L724.33,194.36 L736.17,195.03 L748.00,193.71 L759.83,196.52 L771.67,194.37 L783.50,195.10 L795.33,193.86 L807.17,194.27 L819.00,194.89 L830.83,194.88 L842.67,195.36 L854.50,192.32 L866.33,194.92 L878.17,193.06 L890.00,193.81" stroke="#0969da" stroke-width="1.7" fill="none"/><path d="M535.24,151.54 L546.83,162.06 L558.67,177.92 L570.50,183.74 L582.33,188.01 L594.17,191.34 L606.00,186.03 L617.83,190.09 L629.67,190.67 L641.50,191.70 L653.33,196.02 L665.17,194.41 L677.00,191.97 L688.83,195.36 L700.67,195.32 L712.50,193.68 L724.33,194.50 L736.17,194.88 L748.00,193.77 L759.83,197.29 L771.67,194.07 L783.50,195.94 L795.33,194.29 L807.17,194.91 L819.00,194.89 L830.83,195.34 L842.67,195.90 L854.50,192.94 L866.33,195.55 L878.17,193.77 L890.00,194.26" stroke="#6e7781" stroke-width="1.7" fill="none"/><rect x="535" y="328" width="15" height="3" fill="#0969da"/><text x="557" y="334" font-size="12" fill="#24292f" text-anchor="start">real MAE</text><rect x="710" y="328" width="15" height="3" fill="#6e7781"/><text x="732" y="334" font-size="12" fill="#24292f" text-anchor="start">world MAE</text><text x="24" y="381" font-size="13" fill="#57606a" text-anchor="start">横轴：训练 step。在线 ASAR 为另一组 32 对 rollout，未画成训练成功率。</text></g></svg>
