<svg xmlns="http://www.w3.org/2000/svg" viewBox="0 0 920 491" role="img"><title>LingBot：10 版策略的 160 条评测</title><g font-family="Arial, PingFang SC, sans-serif"><rect x="0" y="0" width="920" height="491" fill="#ffffff"/><text x="24" y="34" font-size="21" fill="#24292f" text-anchor="start">LingBot：10 版策略的 160 条评测</text><text x="24" y="63" font-size="14" fill="#57606a" text-anchor="start">同列对应同一 seed；中止计入未成功，不从分母里剔除。</text><text x="177" y="93" font-size="12" fill="#24292f" text-anchor="middle">1</text><text x="213" y="93" font-size="12" fill="#24292f" text-anchor="middle">2</text><text x="249" y="93" font-size="12" fill="#24292f" text-anchor="middle">3</text><text x="285" y="93" font-size="12" fill="#24292f" text-anchor="middle">4</text><text x="321" y="93" font-size="12" fill="#24292f" text-anchor="middle">5</text><text x="357" y="93" font-size="12" fill="#24292f" text-anchor="middle">6</text><text x="393" y="93" font-size="12" fill="#24292f" text-anchor="middle">7</text><text x="429" y="93" font-size="12" fill="#24292f" text-anchor="middle">8</text><text x="465" y="93" font-size="12" fill="#24292f" text-anchor="middle">9</text><text x="501" y="93" font-size="12" fill="#24292f" text-anchor="middle">10</text><text x="537" y="93" font-size="12" fill="#24292f" text-anchor="middle">11</text><text x="573" y="93" font-size="12" fill="#24292f" text-anchor="middle">12</text><text x="609" y="93" font-size="12" fill="#24292f" text-anchor="middle">13</text><text x="645" y="93" font-size="12" fill="#24292f" text-anchor="middle">14</text><text x="681" y="93" font-size="12" fill="#24292f" text-anchor="middle">15</text><text x="717" y="93" font-size="12" fill="#24292f" text-anchor="middle">16</text><text x="24" y="126" font-size="15" fill="#24292f" text-anchor="start">sft</text><rect x="162" y="106" width="29" height="25" fill="#0969da"/><rect x="198" y="106" width="29" height="25" fill="#0969da"/><rect x="234" y="106" width="29" height="25" fill="#0969da"/><rect x="270" y="106" width="29" height="25" fill="#eceff2"/><rect x="306" y="106" width="29" height="25" fill="#0969da"/><rect x="342" y="106" width="29" height="25" fill="#0969da"/><rect x="378" y="106" width="29" height="25" fill="#eceff2"/><rect x="414" y="106" width="29" height="25" fill="#0969da"/><rect x="450" y="106" width="29" height="25" fill="#eceff2"/><rect x="486" y="106" width="29" height="25" fill="#0969da"/><rect x="522" y="106" width="29" height="25" fill="#0969da"/><rect x="558" y="106" width="29" height="25" fill="#0969da"/><rect x="594" y="106" width="29" height="25" fill="#0969da"/><rect x="630" y="106" width="29" height="25" fill="#eceff2"/><rect x="666" y="106" width="29" height="25" fill="#0969da"/><rect x="702" y="106" width="29" height="25" fill="#eceff2"/><text x="767" y="126" font-size="15" fill="#24292f" text-anchor="start">11/16</text><text x="24" y="159" font-size="15" fill="#24292f" text-anchor="start">exp005</text><rect x="162" y="139" width="29" height="25" fill="#eceff2"/><text x="176" y="157" font-size="17" fill="#8a4600" text-anchor="middle">×</text><rect x="198" y="139" width="29" height="25" fill="#0969da"/><rect x="234" y="139" width="29" height="25" fill="#eceff2"/><rect x="270" y="139" width="29" height="25" fill="#0969da"/><rect x="306" y="139" width="29" height="25" fill="#eceff2"/><text x="320" y="157" font-size="17" fill="#8a4600" text-anchor="middle">×</text><rect x="342" y="139" width="29" height="25" fill="#0969da"/><rect x="378" y="139" width="29" height="25" fill="#eceff2"/><rect x="414" y="139" width="29" height="25" fill="#0969da"/><rect x="450" y="139" width="29" height="25" fill="#0969da"/><rect x="486" y="139" width="29" height="25" fill="#0969da"/><rect x="522" y="139" width="29" height="25" fill="#0969da"/><rect x="558" y="139" width="29" height="25" fill="#0969da"/><rect x="594" y="139" width="29" height="25" fill="#0969da"/><rect x="630" y="139" width="29" height="25" fill="#eceff2"/><rect x="666" y="139" width="29" height="25" fill="#0969da"/><rect x="702" y="139" width="29" height="25" fill="#0969da"/><text x="767" y="159" font-size="15" fill="#24292f" text-anchor="start">11/16</text><text x="24" y="192" font-size="15" fill="#24292f" text-anchor="start">exp008</text><rect x="162" y="172" width="29" height="25" fill="#eceff2"/><rect x="198" y="172" width="29" height="25" fill="#0969da"/><rect x="234" y="172" width="29" height="25" fill="#eceff2"/><rect x="270" y="172" width="29" height="25" fill="#eceff2"/><rect x="306" y="172" width="29" height="25" fill="#0969da"/><rect x="342" y="172" width="29" height="25" fill="#eceff2"/><rect x="378" y="172" width="29" height="25" fill="#eceff2"/><rect x="414" y="172" width="29" height="25" fill="#eceff2"/><rect x="450" y="172" width="29" height="25" fill="#eceff2"/><rect x="486" y="172" width="29" height="25" fill="#0969da"/><rect x="522" y="172" width="29" height="25" fill="#0969da"/><rect x="558" y="172" width="29" height="25" fill="#eceff2"/><rect x="594" y="172" width="29" height="25" fill="#eceff2"/><rect x="630" y="172" width="29" height="25" fill="#eceff2"/><rect x="666" y="172" width="29" height="25" fill="#0969da"/><rect x="702" y="172" width="29" height="25" fill="#eceff2"/><text x="767" y="192" font-size="15" fill="#24292f" text-anchor="start">5/16</text><text x="24" y="225" font-size="15" fill="#24292f" text-anchor="start">exp009</text><rect x="162" y="205" width="29" height="25" fill="#eceff2"/><rect x="198" y="205" width="29" height="25" fill="#eceff2"/><rect x="234" y="205" width="29" height="25" fill="#eceff2"/><rect x="270" y="205" width="29" height="25" fill="#eceff2"/><rect x="306" y="205" width="29" height="25" fill="#0969da"/><rect x="342" y="205" width="29" height="25" fill="#eceff2"/><rect x="378" y="205" width="29" height="25" fill="#eceff2"/><rect x="414" y="205" width="29" height="25" fill="#eceff2"/><rect x="450" y="205" width="29" height="25" fill="#eceff2"/><rect x="486" y="205" width="29" height="25" fill="#eceff2"/><rect x="522" y="205" width="29" height="25" fill="#0969da"/><rect x="558" y="205" width="29" height="25" fill="#eceff2"/><rect x="594" y="205" width="29" height="25" fill="#eceff2"/><rect x="630" y="205" width="29" height="25" fill="#eceff2"/><rect x="666" y="205" width="29" height="25" fill="#0969da"/><rect x="702" y="205" width="29" height="25" fill="#0969da"/><text x="767" y="225" font-size="15" fill="#24292f" text-anchor="start">4/16</text><text x="24" y="258" font-size="15" fill="#24292f" text-anchor="start">exp010</text><rect x="162" y="238" width="29" height="25" fill="#0969da"/><rect x="198" y="238" width="29" height="25" fill="#0969da"/><rect x="234" y="238" width="29" height="25" fill="#eceff2"/><rect x="270" y="238" width="29" height="25" fill="#eceff2"/><rect x="306" y="238" width="29" height="25" fill="#0969da"/><rect x="342" y="238" width="29" height="25" fill="#eceff2"/><rect x="378" y="238" width="29" height="25" fill="#eceff2"/><rect x="414" y="238" width="29" height="25" fill="#eceff2"/><rect x="450" y="238" width="29" height="25" fill="#eceff2"/><rect x="486" y="238" width="29" height="25" fill="#0969da"/><rect x="522" y="238" width="29" height="25" fill="#0969da"/><rect x="558" y="238" width="29" height="25" fill="#eceff2"/><rect x="594" y="238" width="29" height="25" fill="#eceff2"/><rect x="630" y="238" width="29" height="25" fill="#eceff2"/><rect x="666" y="238" width="29" height="25" fill="#0969da"/><rect x="702" y="238" width="29" height="25" fill="#eceff2"/><text x="767" y="258" font-size="15" fill="#24292f" text-anchor="start">6/16</text><text x="24" y="291" font-size="15" fill="#24292f" text-anchor="start">exp011</text><rect x="162" y="271" width="29" height="25" fill="#eceff2"/><text x="176" y="289" font-size="17" fill="#8a4600" text-anchor="middle">×</text><rect x="198" y="271" width="29" height="25" fill="#eceff2"/><rect x="234" y="271" width="29" height="25" fill="#eceff2"/><rect x="270" y="271" width="29" height="25" fill="#eceff2"/><rect x="306" y="271" width="29" height="25" fill="#eceff2"/><rect x="342" y="271" width="29" height="25" fill="#eceff2"/><rect x="378" y="271" width="29" height="25" fill="#eceff2"/><rect x="414" y="271" width="29" height="25" fill="#eceff2"/><rect x="450" y="271" width="29" height="25" fill="#eceff2"/><text x="464" y="289" font-size="17" fill="#8a4600" text-anchor="middle">×</text><rect x="486" y="271" width="29" height="25" fill="#0969da"/><rect x="522" y="271" width="29" height="25" fill="#0969da"/><rect x="558" y="271" width="29" height="25" fill="#eceff2"/><rect x="594" y="271" width="29" height="25" fill="#0969da"/><rect x="630" y="271" width="29" height="25" fill="#eceff2"/><rect x="666" y="271" width="29" height="25" fill="#0969da"/><rect x="702" y="271" width="29" height="25" fill="#0969da"/><text x="767" y="291" font-size="15" fill="#24292f" text-anchor="start">5/16</text><text x="24" y="324" font-size="15" fill="#24292f" text-anchor="start">exp012</text><rect x="162" y="304" width="29" height="25" fill="#eceff2"/><rect x="198" y="304" width="29" height="25" fill="#0969da"/><rect x="234" y="304" width="29" height="25" fill="#eceff2"/><rect x="270" y="304" width="29" height="25" fill="#eceff2"/><rect x="306" y="304" width="29" height="25" fill="#eceff2"/><rect x="342" y="304" width="29" height="25" fill="#eceff2"/><rect x="378" y="304" width="29" height="25" fill="#eceff2"/><rect x="414" y="304" width="29" height="25" fill="#eceff2"/><rect x="450" y="304" width="29" height="25" fill="#eceff2"/><rect x="486" y="304" width="29" height="25" fill="#eceff2"/><rect x="522" y="304" width="29" height="25" fill="#eceff2"/><rect x="558" y="304" width="29" height="25" fill="#0969da"/><rect x="594" y="304" width="29" height="25" fill="#eceff2"/><rect x="630" y="304" width="29" height="25" fill="#eceff2"/><rect x="666" y="304" width="29" height="25" fill="#eceff2"/><rect x="702" y="304" width="29" height="25" fill="#eceff2"/><text x="767" y="324" font-size="15" fill="#24292f" text-anchor="start">2/16</text><text x="24" y="357" font-size="15" fill="#24292f" text-anchor="start">exp013</text><rect x="162" y="337" width="29" height="25" fill="#eceff2"/><rect x="198" y="337" width="29" height="25" fill="#eceff2"/><rect x="234" y="337" width="29" height="25" fill="#eceff2"/><rect x="270" y="337" width="29" height="25" fill="#eceff2"/><rect x="306" y="337" width="29" height="25" fill="#0969da"/><rect x="342" y="337" width="29" height="25" fill="#eceff2"/><rect x="378" y="337" width="29" height="25" fill="#eceff2"/><rect x="414" y="337" width="29" height="25" fill="#eceff2"/><rect x="450" y="337" width="29" height="25" fill="#eceff2"/><rect x="486" y="337" width="29" height="25" fill="#eceff2"/><rect x="522" y="337" width="29" height="25" fill="#0969da"/><rect x="558" y="337" width="29" height="25" fill="#eceff2"/><rect x="594" y="337" width="29" height="25" fill="#eceff2"/><rect x="630" y="337" width="29" height="25" fill="#eceff2"/><rect x="666" y="337" width="29" height="25" fill="#0969da"/><rect x="702" y="337" width="29" height="25" fill="#eceff2"/><text x="767" y="357" font-size="15" fill="#24292f" text-anchor="start">3/16</text><text x="24" y="390" font-size="15" fill="#24292f" text-anchor="start">exp014</text><rect x="162" y="370" width="29" height="25" fill="#eceff2"/><rect x="198" y="370" width="29" height="25" fill="#eceff2"/><rect x="234" y="370" width="29" height="25" fill="#eceff2"/><rect x="270" y="370" width="29" height="25" fill="#eceff2"/><rect x="306" y="370" width="29" height="25" fill="#eceff2"/><rect x="342" y="370" width="29" height="25" fill="#eceff2"/><rect x="378" y="370" width="29" height="25" fill="#eceff2"/><rect x="414" y="370" width="29" height="25" fill="#eceff2"/><rect x="450" y="370" width="29" height="25" fill="#eceff2"/><rect x="486" y="370" width="29" height="25" fill="#eceff2"/><rect x="522" y="370" width="29" height="25" fill="#0969da"/><rect x="558" y="370" width="29" height="25" fill="#eceff2"/><rect x="594" y="370" width="29" height="25" fill="#eceff2"/><rect x="630" y="370" width="29" height="25" fill="#eceff2"/><rect x="666" y="370" width="29" height="25" fill="#eceff2"/><rect x="702" y="370" width="29" height="25" fill="#eceff2"/><text x="767" y="390" font-size="15" fill="#24292f" text-anchor="start">1/16</text><text x="24" y="423" font-size="15" fill="#24292f" text-anchor="start">exp015</text><rect x="162" y="403" width="29" height="25" fill="#0969da"/><rect x="198" y="403" width="29" height="25" fill="#0969da"/><rect x="234" y="403" width="29" height="25" fill="#0969da"/><rect x="270" y="403" width="29" height="25" fill="#eceff2"/><rect x="306" y="403" width="29" height="25" fill="#0969da"/><rect x="342" y="403" width="29" height="25" fill="#eceff2"/><rect x="378" y="403" width="29" height="25" fill="#eceff2"/><rect x="414" y="403" width="29" height="25" fill="#eceff2"/><rect x="450" y="403" width="29" height="25" fill="#eceff2"/><rect x="486" y="403" width="29" height="25" fill="#eceff2"/><rect x="522" y="403" width="29" height="25" fill="#0969da"/><rect x="558" y="403" width="29" height="25" fill="#eceff2"/><rect x="594" y="403" width="29" height="25" fill="#eceff2"/><text x="608" y="421" font-size="17" fill="#8a4600" text-anchor="middle">×</text><rect x="630" y="403" width="29" height="25" fill="#eceff2"/><rect x="666" y="403" width="29" height="25" fill="#0969da"/><rect x="702" y="403" width="29" height="25" fill="#0969da"/><text x="767" y="423" font-size="15" fill="#24292f" text-anchor="start">7/16</text><text x="24" y="467" font-size="13" fill="#57606a" text-anchor="start">蓝：成功　灰：未成功　×：规划失败中止。列号与完整 seed 对照见 CSV。</text></g></svg>
